<svg xmlns="http://www.w3.org/2000/svg" viewBox="0 0 32 32" role="img" aria-label="APITuner">
  <defs>
    <linearGradient id="badge" x1="4" y1="2" x2="28" y2="30" gradientUnits="userSpaceOnUse">
      <stop stop-color="#2dd4bf"/>
      <stop offset="0.45" stop-color="#14b8a6"/>
      <stop offset="1" stop-color="#0f766e"/>
    </linearGradient>
  </defs>
  <!-- Badge -->
  <rect width="32" height="32" rx="8" fill="url(#badge)"/>
  <!-- Dial face -->
  <circle cx="16" cy="16" r="11.6" fill="#042f2e"/>
  <circle cx="16" cy="16" r="11.6" fill="none" stroke="#0d9488" stroke-width="1.2" opacity="0.55"/>
  <!-- Frequency ticks (12) -->
  <g stroke="#5eead4" stroke-linecap="round">
    <path d="M16 7.6V4.8" stroke-width="1.7"/>
    <path d="M20.5 8.21L21.6 6.3" stroke-width="1.25" opacity="0.7"/>
    <path d="M23.79 11.5L25.7 10.4" stroke-width="1.25" opacity="0.7"/>
    <path d="M24.4 16H27.2" stroke-width="1.7"/>
    <path d="M23.79 20.5L25.7 21.6" stroke-width="1.25" opacity="0.7"/>
    <path d="M20.5 23.79L21.6 25.7" stroke-width="1.25" opacity="0.7"/>
    <path d="M16 24.4V27.2" stroke-width="1.7"/>
    <path d="M11.5 23.79L10.4 25.7" stroke-width="1.25" opacity="0.7"/>
    <path d="M8.21 20.5L6.3 21.6" stroke-width="1.25" opacity="0.7"/>
    <path d="M7.6 16H4.8" stroke-width="1.7"/>
    <path d="M8.21 11.5L6.3 10.4" stroke-width="1.25" opacity="0.7"/>
    <path d="M11.5 8.21L10.4 6.3" stroke-width="1.25" opacity="0.7"/>
  </g>
  <!-- Needle locked at ~2 o'clock -->
  <path d="M14.09 17.1L22.24 12.4" stroke="#2dd4bf" stroke-width="2.1" stroke-linecap="round"/>
  <circle cx="22.24" cy="12.4" r="1.55" fill="#5eead4"/>
  <!-- Pivot hub -->
  <circle cx="16" cy="16" r="2.35" fill="#14b8a6"/>
  <circle cx="16" cy="16" r="1.15" fill="#042f2e"/>
</svg>
